<svg xmlns="http://www.w3.org/2000/svg" version="1.1" xmlns:xlink="http://www.w3.org/1999/xlink" xmlns:svgjs="http://svgjs.com/svgjs" width="3840" height="2160" preserveAspectRatio="none" viewBox="0 0 3840 2160"><g mask="url(&quot;#SvgjsMask1692&quot;)" fill="none"><rect width="3840" height="2160" x="0" y="0" fill="url(#SvgjsLinearGradient1693)"></rect><path d="M3840 0L2561.7799999999997 0L3840 227.37z" fill="rgba(255, 255, 255, .1)"></path><path d="M2561.7799999999997 0L3840 227.37L3840 626.99L2110.6699999999996 0z" fill="rgba(255, 255, 255, .075)"></path><path d="M2110.67 0L3840 626.99L3840 1215.79L1738.0300000000002 0z" fill="rgba(255, 255, 255, .05)"></path><path d="M1738.0300000000002 0L3840 1215.79L3840 1526.82L802.2000000000002 0z" fill="rgba(255, 255, 255, .025)"></path><path d="M0 2160L1225.34 2160L0 1147.76z" fill="rgba(0, 0, 0, .1)"></path><path d="M0 1147.76L1225.34 2160L2161.38 2160L0 1119.62z" fill="rgba(0, 0, 0, .075)"></path><path d="M0 1119.62L2161.38 2160L2418.8900000000003 2160L0 940.05z" fill="rgba(0, 0, 0, .05)"></path><path d="M0 940.05L2418.8900000000003 2160L2423.55 2160L0 850z" fill="rgba(0, 0, 0, .025)"></path></g><defs><mask id="SvgjsMask1692"><rect width="3840" height="2160" fill="#ffffff"></rect></mask><linearGradient x1="10.94%" y1="119.44%" x2="89.06%" y2="-19.44%" gradientUnits="userSpaceOnUse" id="SvgjsLinearGradient1693"><stop stop-color="#0e2a47" offset="0"></stop><stop stop-color="rgba(0, 0, 0, 1)" offset="0.5"></stop><stop stop-color="rgba(255, 0, 0, 1)" offset="1"></stop><stop stop-color="rgba(255, 0, 0, 1)" offset="1"></stop></linearGradient></defs></svg>